PathFileType  4	(X/Y/Z) E:\AxonAIRepo\axonai_vps\Data\session_74dd741a74\MarkerData\OpenPose_default\PreAugmentation
DataRate	CameraRate	NumFrames	NumMarkers	Units	OrigDataRate	OrigDataStartFrame	OrigNumFrames
60.0	60.0	14	20	m	60.0	100	398
Frame#	Time	Neck			RShoulder			RElbow			RWrist			LShoulder			LElbow			LWrist			midHip			RHip			RKnee			RAnkle			LHip			LKnee			LAnkle			LBigToe			LSmallToe			LHeel			RBigToe			RSmallToe			RHeel			
		X1	Y1	Z1	X2	Y2	Z2	X3	Y3	Z3	X4	Y4	Z4	X5	Y5	Z5	X6	Y6	Z6	X7	Y7	Z7	X8	Y8	Z8	X9	Y9	Z9	X10	Y10	Z10	X11	Y11	Z11	X12	Y12	Z12	X13	Y13	Z13	X14	Y14	Z14	X15	Y15	Z15	X16	Y16	Z16	X17	Y17	Z17	X18	Y18	Z18	X19	Y19	Z19	X20	Y20	Z20	

100	1.6500000	-3.5806200	1.5450000	0.2380500	-3.6158800	1.5480700	0.4432800	-3.4631900	1.2809000	0.5535300	-3.5379900	1.0449000	0.5740600	-3.4381100	1.5496300	0.0461300	-3.3280500	1.3156300	-0.1389600	-3.5103500	1.0820000	-0.0663400	-3.5318200	0.9908300	0.2535800	-3.3426900	0.9943500	0.3512200	-3.2359300	0.5621300	0.3244700	-3.4720200	0.1336200	0.3697300	-3.2845300	1.0028800	0.1261600	-3.1955200	0.5627100	0.1390700	-3.2289500	0.1857700	0.1195900	-3.1453300	0.1282300	0.1292500	-3.3716000	0.1020400	0.0643700	-3.4024700	0.1371700	0.1452700	-3.3877200	0.0797900	0.3506200	-3.4614100	0.0972300	0.3917900	-3.4881800	0.1203600	0.3269900
101	1.6666667	-3.5893900	1.5457500	0.2454500	-3.5951600	1.5472700	0.4453700	-3.5004000	1.2778600	0.5617000	-3.5113400	1.0348000	0.5745300	-3.4114400	1.5478900	0.0509200	-3.3809800	1.3191100	-0.1263700	-3.5132000	1.0770400	-0.0712900	-3.5390800	0.9914000	0.2544100	-3.3382700	0.9953900	0.3519000	-3.2350300	0.5619400	0.3239300	-3.5149900	0.1286600	0.3680500	-3.2651700	1.0037700	0.1280500	-3.1633800	0.5698100	0.1417800	-3.2284200	0.1856600	0.1195400	-3.1390900	0.1285300	0.1300300	-3.3834800	0.0989300	0.0632800	-3.3908500	0.1423600	0.1439900	-3.3821100	0.0810800	0.3494900	-3.4562000	0.1007000	0.3916900	-3.5272500	0.1136400	0.3247300
102	1.6833333	-3.5795600	1.5448900	0.2520000	-3.5889300	1.5461600	0.4452100	-3.5476700	1.2836900	0.5718800	-3.4943200	1.0324300	0.5797500	-3.4071000	1.5478900	0.0561100	-3.4265200	1.3210500	-0.1146900	-3.5203400	1.0705200	-0.0812000	-3.5413100	0.9919800	0.2538800	-3.3380700	0.9981500	0.3572400	-3.2407000	0.5618000	0.3248800	-3.5462000	0.1242300	0.3671900	-3.2519600	1.0035300	0.1293800	-3.1499300	0.5733500	0.1440500	-3.2277500	0.1862800	0.1194100	-3.1460100	0.1274300	0.1293600	-3.3711400	0.1032300	0.0644100	-3.3623800	0.1472000	0.1399300	-3.3541900	0.0849200	0.3444400	-3.4482700	0.1052900	0.3915900	-3.5558500	0.1084500	0.3232100
103	1.7000000	-3.5611200	1.5443900	0.2544100	-3.5930200	1.5467800	0.4447600	-3.5808300	1.2905500	0.5809400	-3.5000900	1.0314100	0.5877600	-3.4426800	1.5502400	0.0621800	-3.4408200	1.3233700	-0.1040000	-3.5166700	1.0634100	-0.0872200	-3.5458700	0.9949200	0.2536300	-3.3472600	1.0004000	0.3669200	-3.2605500	0.5581500	0.3289900	-3.5476000	0.1233000	0.3676300	-3.2422200	1.0044700	0.1304800	-3.1523500	0.5714500	0.1451400	-3.2271900	0.1867700	0.1193200	-3.1610800	0.1264900	0.1275600	-3.3457800	0.1098700	0.0665700	-3.3346900	0.1516000	0.1356100	-3.3293000	0.0903800	0.3394900	-3.4448600	0.1084700	0.3914700	-3.5576500	0.1079900	0.3236400
104	1.7166667	-3.5440700	1.5440900	0.2546100	-3.5905400	1.5465000	0.4449700	-3.5779600	1.2973900	0.5863200	-3.5168800	1.0340800	0.5934800	-3.4972200	1.5539700	0.0688400	-3.4189000	1.3260400	-0.0928200	-3.4793200	1.0624800	-0.0842700	-3.5463800	0.9995000	0.2542900	-3.3716700	1.0003800	0.3773700	-3.2949100	0.5535200	0.3358500	-3.5128500	0.1290600	0.3675700	-3.2316400	1.0072700	0.1319600	-3.1572000	0.5704900	0.1451400	-3.2273400	0.1870400	0.1193100	-3.1701500	0.1274700	0.1257800	-3.3349300	0.1148700	0.0667900	-3.3385800	0.1513700	0.1356700	-3.3286000	0.0910500	0.3391000	-3.4485700	0.1055200	0.3914900	-3.5315100	0.1125500	0.3256400
105	1.7333333	-3.5266100	1.5439600	0.2568600	-3.5671900	1.5460000	0.4460700	-3.5531300	1.3019800	0.5895200	-3.5261100	1.0361000	0.5951200	-3.5367200	1.5562300	0.0753300	-3.3968000	1.3254100	-0.0837500	-3.4260000	1.0644200	-0.0769600	-3.5277300	1.0032800	0.2562800	-3.4043000	0.9991900	0.3853300	-3.3349500	0.5482200	0.3438600	-3.4509900	0.1393900	0.3646400	-3.2232200	1.0117600	0.1334900	-3.1648200	0.5702900	0.1440700	-3.2269200	0.1862400	0.1193700	-3.1681800	0.1316600	0.1249300	-3.3523200	0.1140200	0.0641900	-3.3689500	0.1460000	0.1399400	-3.3539200	0.0853400	0.3438700	-3.4579200	0.0988700	0.3915600	-3.4856100	0.1199500	0.3263700
106	1.7500000	-3.5181500	1.5441500	0.2631700	-3.5237100	1.5447200	0.4477600	-3.5480600	1.3026300	0.5947400	-3.5282000	1.0380000	0.5946500	-3.5370100	1.5537300	0.0806900	-3.4145700	1.3191400	-0.0789000	-3.3949700	1.0650100	-0.0723900	-3.4869300	1.0065100	0.2594200	-3.4251300	0.9993600	0.3890300	-3.3767600	0.5414500	0.3523700	-3.3987500	0.1475400	0.3605900	-3.2149700	1.0150600	0.1349000	-3.1815200	0.5673600	0.1423700	-3.2233500	0.1839100	0.1194400	-3.1710800	0.1363400	0.1256500	-3.3926200	0.1072100	0.0613300	-3.3798100	0.1443100	0.1434500	-3.3904100	0.0791700	0.3504800	-3.4658400	0.0943900	0.3914900	-3.4359700	0.1283400	0.3228700
107	1.7666667	-3.5228400	1.5449800	0.2712200	-3.4719600	1.5420200	0.4494000	-3.5730400	1.3011200	0.6020300	-3.5279600	1.0373900	0.5940800	-3.5078200	1.5484400	0.0844000	-3.4557800	1.3125700	-0.0758100	-3.3937100	1.0636400	-0.0721000	-3.4355900	1.0072600	0.2629800	-3.4269300	0.9990800	0.3893100	-3.4194800	0.5376800	0.3606500	-3.3886900	0.1470600	0.3605900	-3.1934300	1.0151800	0.1371200	-3.1991500	0.5622100	0.1427800	-3.2164100	0.1814500	0.1196000	-3.1915500	0.1330400	0.1292400	-3.4400400	0.0982900	0.0620100	-3.3452800	0.1497400	0.1445400	-3.4108800	0.0746300	0.3546500	-3.4600800	0.0949000	0.3915600	-3.4014600	0.1340500	0.3179600
108	1.7833333	-3.5164700	1.5454200	0.2774900	-3.4216000	1.5394400	0.4509100	-3.6002100	1.2964900	0.6073600	-3.5188600	1.0361200	0.5938100	-3.4818700	1.5446000	0.0879900	-3.4720800	1.3107000	-0.0722200	-3.4021900	1.0637100	-0.0735100	-3.3890600	1.0052200	0.2657700	-3.4259800	0.9961700	0.3898000	-3.4502100	0.5337100	0.3672300	-3.4113700	0.1395300	0.3653800	-3.1594000	1.0117100	0.1399100	-3.2075500	0.5558400	0.1474600	-3.2104600	0.1800200	0.1198400	-3.2243900	0.1241700	0.1344400	-3.4784000	0.0901700	0.0661700	-3.3050300	0.1559700	0.1456800	-3.4074800	0.0716400	0.3553500	-3.4345200	0.0996700	0.3926400	-3.3927100	0.1336500	0.3183900
109	1.8000000	-3.4816400	1.5429500	0.2814500	-3.3812000	1.5362700	0.4539400	-3.6113500	1.2899300	0.6089500	-3.4907200	1.0338500	0.5939000	-3.4734200	1.5434500	0.0942600	-3.4594200	1.3097100	-0.0693700	-3.3939600	1.0649600	-0.0724400	-3.3605400	1.0022900	0.2668100	-3.4413500	0.9918900	0.3936900	-3.4651200	0.5257500	0.3717700	-3.4338800	0.1334700	0.3700000	-3.1320500	1.0083400	0.1414800	-3.2057300	0.5480300	0.1530100	-3.2156000	0.1784100	0.1193600	-3.2487200	0.1142400	0.1382800	-3.4983400	0.0846000	0.0699700	-3.3051600	0.1552300	0.1463200	-3.3988800	0.0653500	0.3560300	-3.4045500	0.1032500	0.3957300	-3.4011500	0.1281900	0.3249200
110	1.8166667	-3.4321800	1.5376400	0.2845100	-3.3575900	1.5320700	0.4604800	-3.6108700	1.2844800	0.6086200	-3.4526700	1.0343300	0.5941500	-3.4740100	1.5443800	0.1025000	-3.4600800	1.3083500	-0.0687700	-3.3548600	1.0659700	-0.0655600	-3.3540300	0.9988100	0.2665500	-3.4708500	0.9887300	0.3998600	-3.4876500	0.5196900	0.3766200	-3.4409000	0.1323400	0.3714900	-3.1218000	1.0054600	0.1416100	-3.1921400	0.5459100	0.1536100	-3.2410600	0.1742400	0.1170200	-3.2569400	0.1133600	0.1391000	-3.5052200	0.0851200	0.0710800	-3.3353100	0.1505800	0.1421400	-3.4071100	0.0599500	0.3587900	-3.3948700	0.1044200	0.4002500	-3.4175800	0.1241900	0.3306700
111	1.8333333	-3.3902800	1.5314600	0.2869700	-3.3436700	1.5274500	0.4690700	-3.6064800	1.2796500	0.6080800	-3.4261400	1.0324700	0.5943700	-3.4759200	1.5450900	0.1083000	-3.5060300	1.3074000	-0.0695000	-3.3014800	1.0640100	-0.0552600	-3.3661800	0.9952900	0.2672700	-3.4978100	0.9878900	0.4045000	-3.5284300	0.5197200	0.3830300	-3.4394000	0.1332400	0.3711500	-3.1289400	1.0036100	0.1423000	-3.1709500	0.5510700	0.1496400	-3.2772000	0.1691300	0.1135400	-3.2519100	0.1171400	0.1388100	-3.5040000	0.0863200	0.0708900	-3.3627000	0.1466000	0.1333500	-3.4247800	0.0579600	0.3621100	-3.4030100	0.1078100	0.4038300	-3.4351000	0.1236200	0.3303700
112	1.8500000	-3.3694200	1.5285700	0.2881700	-3.3268800	1.5233800	0.4753200	-3.6028400	1.2776700	0.6077200	-3.4197300	1.0309700	0.5945000	-3.4787500	1.5456100	0.1097400	-3.5758700	1.3087800	-0.0694900	-3.2604200	1.0604100	-0.0487200	-3.3881300	0.9911000	0.2716400	-3.5216300	0.9882900	0.4074400	-3.5582500	0.5225900	0.3886600	-3.4371800	0.1331900	0.3707300	-3.1544700	1.0001700	0.1456600	-3.1584000	0.5587900	0.1459500	-3.2929600	0.1666900	0.1118500	-3.2456600	0.1200000	0.1386000	-3.4921100	0.0892100	0.0699400	-3.3755700	0.1440900	0.1263100	-3.4309800	0.0585000	0.3634700	-3.4059700	0.1114400	0.4048800	-3.4320900	0.1262700	0.3246900
113	1.8666667	-3.3724200	1.5309000	0.2893600	-3.3108400	1.5217800	0.4773200	-3.6012000	1.2762500	0.6077000	-3.4230400	1.0304900	0.5946800	-3.4817500	1.5458600	0.1091600	-3.6127300	1.3099700	-0.0668400	-3.2380600	1.0602200	-0.0472300	-3.4008300	0.9898000	0.2791100	-3.5534200	0.9887500	0.4119900	-3.5495200	0.5284700	0.3916500	-3.4368500	0.1336100	0.3705900	-3.1905700	0.9967800	0.1507500	-3.1576700	0.5631300	0.1446800	-3.2723300	0.1701500	0.1135800	-3.2499100	0.1198700	0.1379200	-3.4673400	0.0960800	0.0678400	-3.3655800	0.1447400	0.1255700	-3.4187000	0.0625400	0.3617000	-3.3958900	0.1143900	0.4030100	-3.3971200	0.1335900	0.3180000
